<svg xmlns="http://www.w3.org/2000/svg" version="1.0" width="350.000000pt" height="111.000000pt" viewBox="0 0 350.000000 111.000000" preserveAspectRatio="xMidYMid meet">

<g transform="translate(0.000000,111.000000) scale(0.100000,-0.100000)" stroke="none">
<path d="M70 740 c0 -363 0 -370 20 -370 20 0 20 7 20 370 0 363 0 370 -20 370 -20 0 -20 -7 -20 -370z"/>
<path d="M120 740 c0 -363 0 -370 20 -370 20 0 20 7 20 370 0 363 0 370 -20 370 -20 0 -20 -7 -20 -370z"/>
<path d="M240 740 l0 -370 35 0 35 0 0 370 0 370 -35 0 -35 0 0 -370z"/>
<path d="M380 740 l0 -370 45 0 45 0 0 370 0 370 -45 0 -45 0 0 -370z"/>
<path d="M490 740 l0 -370 50 0 50 0 0 370 0 370 -50 0 -50 0 0 -370z"/>
<path d="M620 1105 c0 -3 0 -168 0 -367 l-1 -363 26 -3 25 -3 0 370 0 371 -25 0 c-14 0 -25 -2 -25 -5z"/>
<path d="M697 1104 c-4 -4 -7 -171 -7 -371 l0 -364 23 3 22 3 0 365 c0 321 -2 365 -15 368 -9 1 -19 0 -23 -4z"/>
<path d="M800 740 l0 -370 35 0 35 0 0 370 0 370 -35 0 -35 0 0 -370z"/>
<path d="M890 740 c0 -363 0 -370 20 -370 20 0 20 7 20 370 0 363 0 370 -20 370 -20 0 -20 -7 -20 -370z"/>
<path d="M1000 740 c0 -328 2 -371 15 -368 14 3 16 48 16 368 0 320 -2 365 -16 368 -13 3 -15 -40 -15 -368z"/>
<path d="M1110 1105 c0 -3 0 -168 0 -367 l-1 -363 36 -3 35 -3 0 370 0 371 -35 0 c-19 0 -35 -2 -35 -5z"/>
<path d="M1200 740 l0 -370 45 0 45 0 0 370 0 370 -45 0 -45 0 0 -370z"/>
<path d="M1615 1097 c-3 -6 -4 -172 -3 -367 3 -329 4 -355 21 -358 16 -3 17 20 17 367 0 327 -2 371 -15 371 -9 0 -18 -6 -20 -13z"/>
<path d="M1730 740 l0 -370 30 0 30 0 0 370 0 370 -30 0 -30 0 0 -370z"/>
<path d="M1870 740 c0 -348 1 -371 18 -368 16 3 17 29 17 368 0 339 -1 365 -17 368 -17 3 -18 -20 -18 -368z"/>
<path d="M1930 1105 c0 -3 0 -168 0 -367 l-1 -363 31 -3 30 -3 0 370 0 371 -30 0 c-16 0 -30 -2 -30 -5z"/>
<path d="M2060 740 c0 -363 0 -370 20 -370 20 0 20 7 20 370 0 363 0 370 -20 370 -20 0 -20 -7 -20 -370z"/>
<path d="M2120 740 l0 -370 45 0 45 0 0 370 0 370 -45 0 -45 0 0 -370z"/>
<path d="M2240 740 c0 -322 2 -370 15 -370 13 0 15 48 15 370 0 322 -2 370 -15 370 -13 0 -15 -48 -15 -370z"/>
<path d="M2300 740 c0 -322 2 -370 15 -370 13 0 15 48 15 370 0 322 -2 370 -15 370 -13 0 -15 -48 -15 -370z"/>
<path d="M2410 1105 c0 -3 0 -168 0 -367 l-1 -363 31 -3 30 -3 0 370 0 371 -30 0 c-16 0 -30 -2 -30 -5z"/>
<path d="M2540 740 c0 -363 0 -370 20 -370 20 0 20 7 20 370 0 363 0 370 -20 370 -20 0 -20 -7 -20 -370z"/>
<path d="M2600 740 l0 -370 45 0 45 0 0 370 0 370 -45 0 -45 0 0 -370z"/>
<path d="M2770 1105 c0 -3 0 -168 0 -367 l-1 -363 31 -3 30 -3 0 370 0 371 -30 0 c-16 0 -30 -2 -30 -5z"/>
<path d="M2857 1103 c-4 -3 -7 -170 -7 -370 0 -356 0 -363 20 -363 20 0 20 7 20 370 0 302 -2 370 -13 370 -8 0 -17 -3 -20 -7z"/>
<path d="M2960 740 l0 -370 25 0 25 0 0 370 0 370 -25 0 -25 0 0 -370z"/>
<path d="M3080 740 l0 -370 30 0 30 0 0 370 0 370 -30 0 -30 0 0 -370z"/>
<path d="M3160 740 c0 -363 0 -370 20 -370 20 0 20 7 20 370 0 363 0 370 -20 370 -20 0 -20 -7 -20 -370z"/>
<path d="M3270 740 l0 -370 50 0 50 0 0 370 0 370 -50 0 -50 0 0 -370z"/>
<path d="M3390 740 l0 -370 30 0 30 0 0 370 0 370 -30 0 -30 0 0 -370z"/>
<path d="M2179 336 c-27 -13 -37 -57 -17 -73 7 -6 27 -15 43 -20 22 -7 30 -16 30 -34 0 -30 -42 -40 -61 -14 -20 26 -37 14 -19 -13 29 -41 115 -22 115 26 0 26 -12 38 -55 58 -22 11 -40 26 -40 34 0 22 43 25 66 4 16 -15 19 -15 19 -2 0 32 -47 51 -81 34z"/>
<path d="M3333 335 c-35 -15 -43 -31 -43 -91 0 -55 25 -84 74 -84 25 0 39 7 51 22 11 16 12 24 4 27 -7 2 -16 -4 -21 -13 -13 -23 -54 -20 -72 6 -18 26 -21 71 -6 99 13 24 57 25 82 2 24 -22 36 -8 14 16 -24 26 -48 31 -83 16z"/>
<path d="M135 328 c-11 -29 -55 -162 -55 -165 0 -2 5 -3 10 -3 6 0 15 11 20 25 8 20 16 25 43 25 26 0 36 -6 45 -25 12 -25 38 -36 30 -12 -50 140 -63 167 -75 167 -7 0 -16 -6 -18 -12z m38 -90 c-2 -5 -13 -8 -24 -8 -18 0 -20 4 -14 33 4 17 10 36 13 41 6 11 31 -55 25 -66z"/>
<path d="M290 250 c0 -108 18 -122 22 -17 l3 72 24 -72 c14 -40 30 -73 36 -73 6 0 22 33 36 73 l24 72 3 -72 c4 -105 22 -91 22 17 0 80 -2 90 -18 90 -14 0 -24 -18 -42 -72 l-23 -73 -24 73 c-19 56 -29 72 -44 72 -17 0 -19 -8 -19 -90z"/>
<path d="M540 250 c0 -73 3 -90 15 -90 12 0 15 17 15 90 0 73 -3 90 -15 90 -12 0 -15 -17 -15 -90z"/>
<path d="M630 330 c0 -5 11 -10 25 -10 25 0 25 -1 25 -81 0 -60 3 -80 13 -77 8 3 13 31 15 81 3 74 4 77 27 77 14 0 25 5 25 10 0 6 -28 10 -65 10 -37 0 -65 -4 -65 -10z"/>
<path d="M932 251 c-17 -50 -26 -91 -21 -91 5 0 15 11 21 25 9 19 19 25 45 25 27 0 35 -5 43 -25 12 -30 34 -34 25 -4 -61 191 -71 197 -113 70z m68 -8 c0 -15 -36 -18 -44 -4 -3 5 -1 24 6 42 l12 34 12 -30 c7 -17 13 -36 14 -42z"/>
<path d="M1112 253 c2 -58 7 -88 16 -91 8 -2 12 8 12 31 0 33 2 35 40 41 51 8 70 44 45 82 -13 20 -24 24 -66 24 l-51 0 4 -87z m93 37 c0 -21 -5 -26 -32 -28 -31 -3 -33 -1 -33 28 0 29 2 31 33 28 27 -2 32 -7 32 -28z"/>
<path d="M1300 250 l0 -90 60 0 c33 0 60 4 60 10 0 6 -20 10 -45 10 -44 0 -45 1 -45 33 0 32 1 32 40 29 32 -3 40 -1 40 12 0 12 -10 16 -40 16 -36 0 -40 3 -40 25 0 22 4 25 39 25 22 0 43 5 46 10 4 6 -17 10 -54 10 l-61 0 0 -90z"/>
<path d="M1490 250 l0 -90 49 0 c28 0 53 5 56 10 4 6 -12 10 -39 10 l-46 0 0 80 c0 47 -4 80 -10 80 -6 0 -10 -37 -10 -90z"/>
<path d="M1760 250 l0 -90 39 0 c53 0 69 8 86 41 38 73 1 139 -80 139 l-45 0 0 -90z m93 58 c48 -36 17 -128 -44 -128 l-29 0 0 70 0 70 28 0 c16 0 36 -6 45 -12z"/>
<path d="M1970 250 l0 -90 55 0 c30 0 55 5 55 10 0 6 -21 10 -46 10 -45 0 -45 0 -42 32 3 29 6 32 38 32 51 1 53 20 3 24 -38 3 -43 6 -43 28 0 22 4 24 45 24 25 0 45 5 45 10 0 6 -25 10 -55 10 l-55 0 0 -90z"/>
<path d="M2340 250 c0 -53 4 -90 10 -90 6 0 10 37 10 90 0 53 -4 90 -10 90 -6 0 -10 -37 -10 -90z"/>
<path d="M2451 314 c-46 -58 -13 -154 53 -154 17 0 37 5 44 12 9 9 12 9 12 0 0 -7 5 -12 10 -12 6 0 10 23 10 50 l0 50 -35 0 c-39 0 -48 -17 -12 -22 16 -2 21 -9 19 -23 -5 -24 -19 -35 -48 -35 -31 0 -47 24 -47 70 0 22 6 46 13 55 17 20 59 19 82 -2 25 -22 36 -8 13 17 -28 31 -88 27 -114 -6z"/>
<path d="M2660 250 c0 -107 18 -122 22 -19 l3 72 40 -72 c22 -39 46 -71 53 -71 9 0 12 25 12 90 0 53 -4 90 -10 90 -6 0 -10 -31 -10 -72 l0 -73 -40 73 c-56 100 -70 96 -70 -18z"/>
<path d="M2970 249 c0 -61 4 -89 11 -87 16 5 18 178 2 178 -10 0 -13 -25 -13 -91z"/>
<path d="M3080 250 c0 -107 18 -122 22 -18 l3 73 40 -70 c22 -38 48 -71 58 -73 15 -3 17 6 17 87 0 77 -2 91 -16 91 -14 0 -16 -11 -12 -70 2 -38 3 -70 2 -70 -1 0 -20 32 -43 70 -58 97 -71 93 -71 -20z"/>
<path d="M93 75 c0 -27 2 -38 4 -22 2 15 2 37 0 50 -2 12 -4 0 -4 -28z"/>
<path d="M241 98 c-5 -13 -12 -33 -16 -46 -6 -21 -5 -22 13 -11 17 10 24 10 38 -2 15 -13 16 -12 9 11 -14 47 -24 70 -30 70 -3 0 -9 -10 -14 -22z m19 -19 c0 -11 -4 -18 -10 -14 -5 3 -7 12 -3 20 7 21 13 19 13 -6z"/>
<path d="M1062 75 c0 -34 2 -42 7 -26 9 35 29 37 34 4 4 -27 4 -27 6 5 1 25 -3 32 -18 32 -11 0 -22 8 -24 18 -3 9 -5 -5 -5 -33z"/>
<path d="M1172 75 c0 -41 2 -45 7 -20 l7 30 7 -27 c9 -36 23 -36 33 -1 l7 28 7 -30 c7 -25 8 -22 8 20 1 46 0 48 -13 31 -8 -11 -15 -26 -15 -33 0 -7 -4 -13 -10 -13 -5 0 -10 6 -10 13 0 7 -7 22 -15 33 -13 17 -14 15 -13 -31z"/>
<path d="M1322 108 c-20 -20 -15 -66 9 -79 17 -9 25 -8 37 5 14 14 13 15 -14 13 -23 -2 -30 3 -32 19 -4 31 23 50 46 33 15 -13 16 -12 3 4 -16 20 -32 22 -49 5z"/>
<path d="M1403 75 c0 -27 2 -40 4 -27 6 29 43 31 43 2 0 -11 3 -20 8 -20 4 0 7 18 7 40 0 22 -3 40 -7 40 -5 0 -8 -7 -8 -15 0 -25 -38 -18 -43 8 -2 12 -4 0 -4 -28z"/>
<path d="M1497 75 c-9 -25 -12 -45 -6 -45 5 0 9 5 9 10 0 6 9 10 20 10 11 0 20 -5 20 -12 0 -6 3 -9 6 -5 7 7 -14 75 -26 82 -4 3 -15 -15 -23 -40z m33 -6 c0 -5 -4 -9 -10 -9 -5 0 -10 7 -10 16 0 8 5 12 10 9 6 -3 10 -10 10 -16z"/>
<path d="M1570 76 c0 -39 3 -44 25 -48 14 -3 25 -1 25 3 0 5 -9 9 -20 9 -27 0 -25 28 3 33 l22 4 -22 2 c-13 0 -23 7 -23 15 0 8 10 17 23 19 19 4 18 4 -5 6 -27 1 -28 -1 -28 -43z"/>
<path d="M1640 77 c0 -47 0 -47 33 -46 31 2 31 2 4 6 -25 4 -28 8 -26 38 2 19 0 37 -4 41 -4 4 -7 -14 -7 -39z"/>
<path d="M1750 74 c0 -44 1 -45 28 -42 22 2 27 8 28 33 2 36 -11 55 -37 55 -16 0 -19 -8 -19 -46z m40 21 c0 -8 -7 -15 -15 -15 -8 0 -15 7 -15 15 0 8 7 15 15 15 8 0 15 -7 15 -15z m3 -40 c1 -5 -6 -11 -15 -13 -11 -2 -18 3 -18 13 0 17 30 18 33 0z"/>
<path d="M1890 75 c0 -25 4 -45 9 -45 10 0 23 69 15 82 -13 21 -24 4 -24 -37z"/>
<path d="M1949 83 c-11 -33 -13 -35 -20 -18 -8 18 -8 17 -6 -4 3 -35 23 -37 32 -4 l8 28 7 -30 c7 -26 8 -24 9 18 1 56 -13 61 -30 10z"/>
<path d="M2008 75 c-10 -25 -13 -45 -8 -45 6 0 10 5 10 10 0 6 9 10 20 10 11 0 20 -4 20 -10 0 -5 4 -10 9 -10 6 0 3 20 -6 45 -8 25 -18 45 -22 45 -4 0 -14 -20 -23 -45z m28 -2 c-10 -10 -19 5 -10 18 6 11 8 11 12 0 2 -7 1 -15 -2 -18z"/>
<path d="M2087 114 c-13 -13 -7 -71 9 -85 17 -14 44 -3 53 22 3 9 -2 8 -13 -4 -23 -23 -48 -5 -44 32 3 29 35 41 50 19 8 -10 9 -10 5 2 -4 16 -48 26 -60 14z"/>
<path d="M2172 79 c-2 -42 0 -47 23 -51 14 -3 25 -1 25 3 0 5 -9 9 -19 9 -16 0 -21 8 -24 43 l-4 42 -1 -46z"/>
<path d="M2249 75 c-9 -25 -13 -45 -9 -45 4 0 11 7 14 16 6 15 8 15 31 0 14 -9 25 -14 25 -11 0 12 -33 85 -39 85 -3 0 -13 -20 -22 -45z m27 -2 c-10 -10 -19 5 -10 18 6 11 8 11 12 0 2 -7 1 -15 -2 -18z"/>
<path d="M2329 118 c-6 -40 -5 -88 2 -88 5 0 9 9 9 20 0 13 7 20 20 20 13 0 20 -7 20 -20 0 -11 4 -20 9 -20 5 0 8 19 7 43 -2 39 -4 42 -34 45 -18 2 -32 2 -33 0z m51 -23 c0 -8 -9 -15 -20 -15 -11 0 -20 7 -20 15 0 8 9 15 20 15 11 0 20 -7 20 -15z"/>
<path d="M2417 113 c-2 -5 -5 -25 -5 -45 -1 -38 -1 -38 36 -37 30 2 32 3 10 6 -16 2 -28 10 -28 18 0 8 12 16 28 18 l27 4 -27 2 c-37 1 -37 28 0 34 26 4 25 4 -5 6 -17 0 -34 -2 -36 -6z"/>
<path d="M2499 109 c0 -8 -1 -29 -2 -47 -1 -17 1 -32 6 -32 4 0 7 15 7 33 l0 32 21 -32 c29 -45 39 -41 39 13 0 30 -4 43 -11 38 -6 -3 -9 -17 -6 -30 5 -28 -9 -32 -18 -5 -8 27 -35 48 -36 30z"/>
<path d="M2626 80 c-21 -52 -20 -53 8 -35 23 15 25 15 35 -2 14 -24 14 -9 -1 38 -6 22 -14 39 -18 39 -5 0 -15 -18 -24 -40z m28 5 c3 -8 1 -15 -4 -15 -6 0 -10 7 -10 15 0 8 2 15 4 15 2 0 6 -7 10 -15z"/>
<path d="M2737 113 c-11 -10 -8 -83 3 -83 6 0 10 20 10 45 0 46 -2 50 -13 38z"/>
<path d="M2816 80 c-19 -48 -20 -61 -3 -40 15 20 35 19 47 0 15 -24 12 5 -4 45 -8 19 -17 35 -19 35 -3 0 -12 -18 -21 -40z m28 5 c3 -8 1 -15 -4 -15 -6 0 -10 7 -10 15 0 8 2 15 4 15 2 0 6 -7 10 -15z"/>
<path d="M2961 78 c-10 -24 -16 -45 -13 -48 2 -3 7 1 9 8 3 6 12 12 22 12 9 0 23 -6 30 -12 11 -11 12 -8 6 12 -14 45 -24 70 -30 70 -3 0 -14 -19 -24 -42z m29 7 c0 -8 -4 -15 -10 -15 -5 0 -7 7 -4 15 4 8 8 15 10 15 2 0 4 -7 4 -15z"/>
<path d="M3139 118 c-2 -13 -1 -57 1 -75 1 -10 5 -5 9 11 8 39 24 39 32 1 l7 -30 1 33 c1 23 -4 35 -16 39 -10 4 -21 11 -25 17 -4 6 -8 8 -9 4z"/>
<path d="M659 99 c-2 -28 3 -64 11 -72 4 -5 6 10 4 33 -3 41 -13 67 -15 39z"/>
<path d="M1020 76 c0 -43 16 -56 22 -17 5 32 0 51 -13 51 -5 0 -9 -15 -9 -34z"/>
<path d="M1270 70 c0 -22 5 -40 10 -40 6 0 10 18 10 40 0 22 -4 40 -10 40 -5 0 -10 -18 -10 -40z"/>
<path d="M3239 105 c-7 -6 2 -75 10 -75 3 0 6 16 5 35 -1 35 -6 49 -15 40z"/>
<path d="M3400 76 c0 -19 5 -38 10 -41 6 -4 10 10 10 34 0 23 -4 41 -10 41 -5 0 -10 -15 -10 -34z"/>
<path d="M138 93 c-12 -3 -18 -14 -18 -34 0 -16 4 -29 8 -29 5 0 8 10 8 21 -1 33 22 34 27 2 4 -27 4 -27 6 4 1 35 -5 42 -31 36z"/>
<path d="M313 84 c-3 -8 3 -21 13 -29 19 -14 18 -14 0 -15 -15 0 -17 -3 -9 -11 6 -6 16 -8 22 -5 17 11 13 33 -6 41 -17 7 -17 8 1 14 18 7 18 8 2 14 -10 4 -19 1 -23 -9z"/>
<path d="M373 84 c-4 -10 1 -20 11 -26 9 -5 14 -14 11 -19 -4 -5 -12 -6 -18 -3 -9 5 -9 4 0 -6 13 -14 33 -5 33 15 0 7 -8 16 -17 20 -17 7 -17 8 1 14 18 7 18 8 2 14 -11 4 -19 1 -23 -9z"/>
<path d="M436 85 c-20 -20 -20 -26 -2 -50 12 -16 16 -17 30 -6 20 17 21 45 2 60 -11 9 -18 8 -30 -4z m32 -27 c-2 -13 -7 -23 -13 -23 -5 0 -11 10 -13 23 -2 15 2 22 13 22 11 0 15 -7 13 -22z"/>
<path d="M506 84 c-20 -20 -20 -38 -1 -54 12 -10 19 -10 27 -2 9 9 8 12 -5 12 -11 0 -17 8 -17 21 0 17 4 19 22 13 20 -6 21 -5 9 10 -16 20 -16 20 -35 0z"/>
<path d="M600 90 c-12 -8 -12 -10 4 -10 16 0 16 -2 -4 -18 -21 -17 -21 -19 -4 -32 16 -13 17 -13 11 2 -3 10 -2 20 3 23 6 4 10 -1 10 -9 0 -9 5 -16 10 -16 15 0 12 46 -3 58 -8 7 -18 7 -27 2z"/>
<path d="M813 93 c-7 -3 -12 -19 -12 -36 2 -31 2 -31 6 -4 5 33 25 31 34 -4 l7 -24 1 26 c1 29 -17 49 -36 42z"/>
<path d="M3031 61 c1 -28 3 -30 6 -11 3 14 9 30 14 36 5 7 3 11 -6 11 -11 0 -15 -11 -14 -36z"/>
<path d="M3082 88 c-16 -16 -15 -43 3 -58 15 -12 35 -6 35 12 0 7 -4 7 -13 -1 -16 -13 -27 -5 -27 20 0 24 20 35 32 18 8 -12 9 -12 6 0 -6 20 -21 24 -36 9z"/>
<path d="M3277 94 c-13 -14 -7 -62 9 -68 18 -7 34 0 34 16 0 7 -4 7 -13 -1 -8 -6 -17 -8 -20 -4 -13 12 -7 23 14 23 14 0 19 5 17 17 -3 19 -29 29 -41 17z m33 -14 c0 -5 -7 -10 -16 -10 -8 0 -12 5 -9 10 3 6 10 10 16 10 5 0 9 -4 9 -10z"/>
<path d="M3347 94 c-10 -10 -9 -62 2 -68 12 -8 41 4 41 16 0 6 -6 5 -15 -2 -12 -10 -16 -9 -21 4 -3 9 -3 23 0 32 5 14 9 14 23 3 14 -12 16 -12 11 1 -5 17 -30 25 -41 14z"/>
<path d="M562 60 c0 -19 2 -27 5 -17 2 9 2 25 0 35 -3 9 -5 1 -5 -18z"/>
<path d="M702 60 c0 -19 2 -27 5 -17 2 9 2 25 0 35 -3 9 -5 1 -5 -18z"/>
<path d="M727 84 c-12 -12 -8 -41 8 -54 20 -17 47 5 43 34 -3 21 -37 34 -51 20z m39 -15 c10 -17 -13 -36 -27 -22 -12 12 -4 33 11 33 5 0 12 -5 16 -11z"/>
<path d="M901 60 c10 -27 29 -33 29 -9 0 6 -4 7 -10 4 -5 -3 -10 3 -10 14 0 12 -4 21 -9 21 -6 0 -6 -12 0 -30z"/>
<path d="M930 78 c0 -8 6 -23 14 -34 14 -18 15 -18 26 10 6 16 8 31 5 34 -2 3 -9 -6 -14 -19 -7 -16 -10 -19 -10 -7 -1 20 -21 35 -21 16z"/>
<path d="M990 60 c0 -16 4 -30 8 -30 5 0 7 13 4 30 -2 17 -6 30 -8 30 -2 0 -4 -13 -4 -30z"/>
<path d="M3200 60 c0 -16 5 -30 10 -30 6 0 10 14 10 30 0 17 -4 30 -10 30 -5 0 -10 -13 -10 -30z"/>
</g>
</svg>